solid Untitled-54986d96
facet normal -1.3699494819224246e-15 -1.0 -1.4564551204815326e-15
  outer loop
    vertex 37.5884017543444 40.21722659214463 12.377980646533885
    vertex 19.5884017543444 40.217226592144655 9.500000000000025
    vertex 37.588401754344396 40.2172265921446 9.499999999999982
  endloop
endfacet
facet normal -1.3699494819224246e-15 -1.0 -1.4564551204815326e-15
  outer loop
    vertex 19.5884017543444 40.217226592144655 9.500000000000025
    vertex 37.5884017543444 40.21722659214463 12.377980646533885
    vertex 19.5884017543444 40.2172265921446 34.49999999999998
  endloop
endfacet
facet normal -1.3699494819224246e-15 -1.0 -1.4564551204815326e-15
  outer loop
    vertex 19.5884017543444 40.2172265921446 34.49999999999998
    vertex 37.5884017543444 40.21722659214463 12.377980646533885
    vertex 37.5884017543444 40.217226592144605 16.37798064653389
  endloop
endfacet
facet normal -1.3699494819224246e-15 -1.0 -1.4564551204815326e-15
  outer loop
    vertex 19.5884017543444 40.2172265921446 34.49999999999998
    vertex 37.5884017543444 40.217226592144605 16.37798064653389
    vertex 37.5884017543444 40.217226592144584 27.170138984266707
  endloop
endfacet
facet normal -1.3699494819224246e-15 -1.0 -1.4564551204815326e-15
  outer loop
    vertex 19.5884017543444 40.2172265921446 34.49999999999998
    vertex 37.5884017543444 40.217226592144584 27.170138984266707
    vertex 37.5884017543444 40.217226592144584 31.170138984266703
  endloop
endfacet
facet normal -1.3699494819224246e-15 -1.0 -1.4564551204815326e-15
  outer loop
    vertex 19.5884017543444 40.2172265921446 34.49999999999998
    vertex 37.5884017543444 40.217226592144584 31.170138984266703
    vertex 37.588401754344396 40.2172265921446 34.49999999999998
  endloop
endfacet
facet normal 0.0 1.0 3.1583624604536493e-15
  outer loop
    vertex 20.5884017543444 56.21722659214458 34.50000000000001
    vertex 21.5884017543444 56.217226592144655 9.500000000000037
    vertex 20.5884017543444 56.217226592144655 9.500000000000037
  endloop
endfacet
facet normal 0.0 1.0 3.1583624604536493e-15
  outer loop
    vertex 21.5884017543444 56.217226592144655 9.500000000000037
    vertex 20.5884017543444 56.21722659214458 34.50000000000001
    vertex 21.5884017543444 56.21722659214458 34.50000000000001
  endloop
endfacet
facet normal 1.0 0.0 0.0
  outer loop
    vertex 21.5884017543444 42.21722659214469 9.499999999999979
    vertex 21.5884017543444 56.21722659214458 34.50000000000001
    vertex 21.5884017543444 42.21722659214463 34.499999999999986
  endloop
endfacet
facet normal 1.0 0.0 0.0
  outer loop
    vertex 21.5884017543444 56.21722659214458 34.50000000000001
    vertex 21.5884017543444 42.21722659214469 9.499999999999979
    vertex 21.5884017543444 56.217226592144655 9.500000000000037
  endloop
endfacet
facet normal -1.0 0.0 0.0
  outer loop
    vertex 37.588401754344396 56.21722659214458 34.50000000000001
    vertex 37.588401754344396 42.21722659214469 9.499999999999979
    vertex 37.588401754344396 42.21722659214463 34.499999999999986
  endloop
endfacet
facet normal -1.0 0.0 0.0
  outer loop
    vertex 37.588401754344396 42.21722659214469 9.499999999999979
    vertex 37.588401754344396 56.21722659214458 34.50000000000001
    vertex 37.588401754344396 56.217226592144655 9.500000000000037
  endloop
endfacet
facet normal -1.0 -1.4040204380565667e-14 2.1500670469351402e-17
  outer loop
    vertex 37.588401754344396 40.2172265921446 34.49999999999998
    vertex 37.588401754345384 -29.7827734078554 9.499999999999904
    vertex 37.588401754345384 -29.7827734078554 34.4999999999999
  endloop
endfacet
facet normal -1.0 -1.4040204380565667e-14 2.1500670469351402e-17
  outer loop
    vertex 37.588401754345384 -29.7827734078554 9.499999999999904
    vertex 37.588401754344396 40.2172265921446 34.49999999999998
    vertex 37.58840175434443 38.21722659214458 31.170138984266696
  endloop
endfacet
facet normal -1.0 -1.4040204380565667e-14 2.1500670469351402e-17
  outer loop
    vertex 37.58840175434443 38.21722659214458 31.170138984266696
    vertex 37.588401754344396 40.2172265921446 34.49999999999998
    vertex 37.5884017543444 40.217226592144584 31.170138984266703
  endloop
endfacet
facet normal -1.0 -1.4040204380565667e-14 2.1500670469351402e-17
  outer loop
    vertex 37.5884017543444 40.217226592144584 27.170138984266707
    vertex 37.58840175434443 38.21722659214461 16.37798064653388
    vertex 37.58840175434443 38.21722659214459 27.1701389842667
  endloop
endfacet
facet normal -1.0 -1.4040204380565667e-14 2.1500670469351402e-17
  outer loop
    vertex 37.58840175434443 38.21722659214461 16.37798064653388
    vertex 37.5884017543444 40.217226592144584 27.170138984266707
    vertex 37.5884017543444 40.217226592144605 16.37798064653389
  endloop
endfacet
facet normal -1.0 -1.4040204380565667e-14 2.1500670469351402e-17
  outer loop
    vertex 37.588401754345384 -29.7827734078554 9.499999999999904
    vertex 37.58840175434443 38.21722659214462 12.377980646533882
    vertex 37.588401754344396 40.2172265921446 9.499999999999982
  endloop
endfacet
facet normal -1.0 -1.4040204380565667e-14 2.1500670469351402e-17
  outer loop
    vertex 37.58840175434443 38.21722659214462 12.377980646533882
    vertex 37.588401754345384 -29.7827734078554 9.499999999999904
    vertex 37.58840175434443 38.21722659214461 16.37798064653388
  endloop
endfacet
facet normal -1.0 -1.4040204380565667e-14 2.1500670469351402e-17
  outer loop
    vertex 37.58840175434443 38.21722659214461 16.37798064653388
    vertex 37.588401754345384 -29.7827734078554 9.499999999999904
    vertex 37.58840175434443 38.21722659214458 31.170138984266696
  endloop
endfacet
facet normal -1.0 -1.4040204380565667e-14 2.1500670469351402e-17
  outer loop
    vertex 37.58840175434443 38.21722659214461 16.37798064653388
    vertex 37.58840175434443 38.21722659214458 31.170138984266696
    vertex 37.58840175434443 38.21722659214459 27.1701389842667
  endloop
endfacet
facet normal -1.0 -1.4040204380565667e-14 2.1500670469351402e-17
  outer loop
    vertex 37.588401754344396 40.2172265921446 9.499999999999982
    vertex 37.58840175434443 38.21722659214462 12.377980646533882
    vertex 37.5884017543444 40.21722659214463 12.377980646533885
  endloop
endfacet
facet normal -0.9980525784828885 0.06237828615518063 1.6978319346475698e-16
  outer loop
    vertex 20.5884017543444 56.21722659214458 34.50000000000001
    vertex 19.5884017543444 40.217226592144655 9.500000000000025
    vertex 19.5884017543444 40.2172265921446 34.49999999999998
  endloop
endfacet
facet normal -0.9980525784828885 0.06237828615518063 1.6978319346475698e-16
  outer loop
    vertex 19.5884017543444 40.217226592144655 9.500000000000025
    vertex 20.5884017543444 56.21722659214458 34.50000000000001
    vertex 20.5884017543444 56.217226592144655 9.500000000000037
  endloop
endfacet
facet normal 1.4586285201498227e-17 -1.1713073045571982e-15 1.0
  outer loop
    vertex 19.5884017543444 40.2172265921446 34.49999999999998
    vertex 21.5884017543444 42.21722659214463 34.499999999999986
    vertex 20.5884017543444 56.21722659214458 34.50000000000001
  endloop
endfacet
facet normal 1.4586285201498227e-17 -1.1713073045571982e-15 1.0
  outer loop
    vertex 21.5884017543444 42.21722659214463 34.499999999999986
    vertex 19.5884017543444 40.2172265921446 34.49999999999998
    vertex 37.588401754344396 40.2172265921446 34.49999999999998
  endloop
endfacet
facet normal 1.4586285201498227e-17 -1.1713073045571982e-15 1.0
  outer loop
    vertex 21.5884017543444 42.21722659214463 34.499999999999986
    vertex 37.588401754344396 40.2172265921446 34.49999999999998
    vertex 37.588401754344396 42.21722659214463 34.499999999999986
  endloop
endfacet
facet normal 1.4586285201498227e-17 -1.1713073045571982e-15 1.0
  outer loop
    vertex 37.588401754344396 42.21722659214463 34.499999999999986
    vertex 37.588401754344396 40.2172265921446 34.49999999999998
    vertex 37.588401754345384 -29.7827734078554 34.4999999999999
  endloop
endfacet
facet normal 1.4586285201498227e-17 -1.1713073045571982e-15 1.0
  outer loop
    vertex 37.588401754344396 42.21722659214463 34.499999999999986
    vertex 37.588401754345384 -29.7827734078554 34.4999999999999
    vertex 37.588401754344396 56.21722659214458 34.50000000000001
  endloop
endfacet
facet normal 1.4586285201498227e-17 -1.1713073045571982e-15 1.0
  outer loop
    vertex 37.588401754344396 56.21722659214458 34.50000000000001
    vertex 37.588401754345384 -29.7827734078554 34.4999999999999
    vertex 38.588401754344396 56.21722659214458 34.50000000000001
  endloop
endfacet
facet normal 1.4586285201498227e-17 -1.1713073045571982e-15 1.0
  outer loop
    vertex 38.588401754344396 56.21722659214458 34.50000000000001
    vertex 37.588401754345384 -29.7827734078554 34.4999999999999
    vertex 39.588401754345384 -29.7827734078554 34.4999999999999
  endloop
endfacet
facet normal 1.4586285201498227e-17 -1.1713073045571982e-15 1.0
  outer loop
    vertex 38.588401754344396 56.21722659214458 34.50000000000001
    vertex 39.588401754345384 -29.7827734078554 34.4999999999999
    vertex 39.588401754344396 40.2172265921446 34.49999999999998
  endloop
endfacet
facet normal 1.4586285201498227e-17 -1.1713073045571982e-15 1.0
  outer loop
    vertex 21.5884017543444 56.21722659214458 34.50000000000001
    vertex 20.5884017543444 56.21722659214458 34.50000000000001
    vertex 21.5884017543444 42.21722659214463 34.499999999999986
  endloop
endfacet
facet normal 0.9980525784828885 0.06237828615518044 1.6017401824316834e-16
  outer loop
    vertex 39.588401754344396 40.21722659214463 16.37798064653389
    vertex 39.588401754344396 40.217226592144605 31.170138984266703
    vertex 39.588401754344396 40.217226592144605 27.170138984266707
  endloop
endfacet
facet normal 0.9980525784828885 0.06237828615518044 1.6017401824316834e-16
  outer loop
    vertex 38.588401754344396 56.217226592144655 9.500000000000037
    vertex 39.588401754344396 40.217226592144655 12.377980646533885
    vertex 39.588401754344396 40.217226592144655 9.500000000000025
  endloop
endfacet
facet normal 0.9980525784828885 0.06237828615518044 1.6017401824316834e-16
  outer loop
    vertex 39.588401754344396 40.217226592144655 12.377980646533885
    vertex 38.588401754344396 56.217226592144655 9.500000000000037
    vertex 38.588401754344396 56.21722659214458 34.50000000000001
  endloop
endfacet
facet normal 0.9980525784828885 0.06237828615518044 1.6017401824316834e-16
  outer loop
    vertex 39.588401754344396 40.217226592144605 31.170138984266703
    vertex 38.588401754344396 56.21722659214458 34.50000000000001
    vertex 39.588401754344396 40.2172265921446 34.49999999999998
  endloop
endfacet
facet normal 0.9980525784828885 0.06237828615518044 1.6017401824316834e-16
  outer loop
    vertex 38.588401754344396 56.21722659214458 34.50000000000001
    vertex 39.588401754344396 40.217226592144605 31.170138984266703
    vertex 39.588401754344396 40.21722659214463 16.37798064653389
  endloop
endfacet
facet normal 0.9980525784828885 0.06237828615518044 1.6017401824316834e-16
  outer loop
    vertex 38.588401754344396 56.21722659214458 34.50000000000001
    vertex 39.588401754344396 40.21722659214463 16.37798064653389
    vertex 39.588401754344396 40.217226592144655 12.377980646533885
  endloop
endfacet
facet normal -1.2071950503407017e-16 1.2205175493457687e-15 -1.0
  outer loop
    vertex 38.588401754344396 56.217226592144655 9.500000000000037
    vertex 37.588401754344396 42.21722659214469 9.499999999999979
    vertex 37.588401754344396 56.217226592144655 9.500000000000037
  endloop
endfacet
facet normal -1.2071950503407017e-16 1.2205175493457687e-15 -1.0
  outer loop
    vertex 37.588401754344396 42.21722659214469 9.499999999999979
    vertex 38.588401754344396 56.217226592144655 9.500000000000037
    vertex 37.588401754344396 40.2172265921446 9.499999999999982
  endloop
endfacet
facet normal -1.2071950503407017e-16 1.2205175493457687e-15 -1.0
  outer loop
    vertex 37.588401754344396 40.2172265921446 9.499999999999982
    vertex 38.588401754344396 56.217226592144655 9.500000000000037
    vertex 37.588401754345384 -29.7827734078554 9.499999999999904
  endloop
endfacet
facet normal -1.2071950503407017e-16 1.2205175493457687e-15 -1.0
  outer loop
    vertex 37.588401754345384 -29.7827734078554 9.499999999999904
    vertex 38.588401754344396 56.217226592144655 9.500000000000037
    vertex 39.588401754345384 -29.782773407855345 9.499999999999947
  endloop
endfacet
facet normal -1.2071950503407017e-16 1.2205175493457687e-15 -1.0
  outer loop
    vertex 39.588401754345384 -29.782773407855345 9.499999999999947
    vertex 38.588401754344396 56.217226592144655 9.500000000000037
    vertex 39.588401754344396 40.217226592144655 9.500000000000025
  endloop
endfacet
facet normal -1.2071950503407017e-16 1.2205175493457687e-15 -1.0
  outer loop
    vertex 19.5884017543444 40.217226592144655 9.500000000000025
    vertex 21.5884017543444 42.21722659214469 9.499999999999979
    vertex 37.588401754344396 40.2172265921446 9.499999999999982
  endloop
endfacet
facet normal -1.2071950503407017e-16 1.2205175493457687e-15 -1.0
  outer loop
    vertex 21.5884017543444 42.21722659214469 9.499999999999979
    vertex 19.5884017543444 40.217226592144655 9.500000000000025
    vertex 20.5884017543444 56.217226592144655 9.500000000000037
  endloop
endfacet
facet normal -1.2071950503407017e-16 1.2205175493457687e-15 -1.0
  outer loop
    vertex 21.5884017543444 42.21722659214469 9.499999999999979
    vertex 20.5884017543444 56.217226592144655 9.500000000000037
    vertex 21.5884017543444 56.217226592144655 9.500000000000037
  endloop
endfacet
facet normal -1.2071950503407017e-16 1.2205175493457687e-15 -1.0
  outer loop
    vertex 37.588401754344396 40.2172265921446 9.499999999999982
    vertex 21.5884017543444 42.21722659214469 9.499999999999979
    vertex 37.588401754344396 42.21722659214469 9.499999999999979
  endloop
endfacet
facet normal 0.0 1.0 1.457167719820518e-15
  outer loop
    vertex 21.5884017543444 42.21722659214463 34.499999999999986
    vertex 37.588401754344396 42.21722659214469 9.499999999999979
    vertex 21.5884017543444 42.21722659214469 9.499999999999979
  endloop
endfacet
facet normal 0.0 1.0 1.457167719820518e-15
  outer loop
    vertex 37.588401754344396 42.21722659214469 9.499999999999979
    vertex 21.5884017543444 42.21722659214463 34.499999999999986
    vertex 37.588401754344396 42.21722659214463 34.499999999999986
  endloop
endfacet
facet normal 2.5115964582179126e-44 1.0 3.158362460453649e-15
  outer loop
    vertex 37.588401754344396 56.21722659214458 34.50000000000001
    vertex 38.588401754344396 56.217226592144655 9.500000000000037
    vertex 37.588401754344396 56.217226592144655 9.500000000000037
  endloop
endfacet
facet normal 2.5115964582179126e-44 1.0 3.158362460453649e-15
  outer loop
    vertex 38.588401754344396 56.217226592144655 9.500000000000037
    vertex 37.588401754344396 56.21722659214458 34.50000000000001
    vertex 38.588401754344396 56.21722659214458 34.50000000000001
  endloop
endfacet
facet normal 1.4099832412739486e-14 -1.0 -1.127986593019159e-15
  outer loop
    vertex 39.588401754345384 -29.782773407855345 9.499999999999947
    vertex 37.588401754345384 -29.7827734078554 34.4999999999999
    vertex 37.588401754345384 -29.7827734078554 9.499999999999904
  endloop
endfacet
facet normal 1.4099832412739486e-14 -1.0 -1.127986593019159e-15
  outer loop
    vertex 37.588401754345384 -29.7827734078554 34.4999999999999
    vertex 39.588401754345384 -29.782773407855345 9.499999999999947
    vertex 39.588401754345384 -29.7827734078554 34.4999999999999
  endloop
endfacet
facet normal -3.177234444498855e-29 2.8199664825478947e-15 -1.0
  outer loop
    vertex 39.588401754344396 40.217226592144605 31.170138984266703
    vertex 37.58840175434443 38.21722659214458 31.170138984266696
    vertex 37.5884017543444 40.217226592144584 31.170138984266703
  endloop
endfacet
facet normal -3.177234444498855e-29 2.8199664825478947e-15 -1.0
  outer loop
    vertex 37.58840175434443 38.21722659214458 31.170138984266696
    vertex 39.588401754344396 40.217226592144605 31.170138984266703
    vertex 39.588401754344424 38.2172265921446 31.170138984266696
  endloop
endfacet
facet normal -1.4099832412739474e-14 1.0 2.8199664825478986e-15
  outer loop
    vertex 37.58840175434443 38.21722659214458 31.170138984266696
    vertex 39.588401754344424 38.21722659214461 27.1701389842667
    vertex 37.58840175434443 38.21722659214459 27.1701389842667
  endloop
endfacet
facet normal -1.4099832412739474e-14 1.0 2.8199664825478986e-15
  outer loop
    vertex 39.588401754344424 38.21722659214461 27.1701389842667
    vertex 37.58840175434443 38.21722659214458 31.170138984266696
    vertex 39.588401754344424 38.2172265921446 31.170138984266696
  endloop
endfacet
facet normal -3.177234444498855e-29 2.8199664825478947e-15 -1.0
  outer loop
    vertex 39.588401754344396 40.21722659214463 16.37798064653389
    vertex 37.58840175434443 38.21722659214461 16.37798064653388
    vertex 37.5884017543444 40.217226592144605 16.37798064653389
  endloop
endfacet
facet normal -3.177234444498855e-29 2.8199664825478947e-15 -1.0
  outer loop
    vertex 37.58840175434443 38.21722659214461 16.37798064653388
    vertex 39.588401754344396 40.21722659214463 16.37798064653389
    vertex 39.588401754344424 38.217226592144634 16.37798064653388
  endloop
endfacet
facet normal 1.1279865930191612e-14 -1.0 -2.8199664825478986e-15
  outer loop
    vertex 39.588401754344396 40.217226592144605 31.170138984266703
    vertex 37.5884017543444 40.217226592144584 27.170138984266707
    vertex 39.588401754344396 40.217226592144605 27.170138984266707
  endloop
endfacet
facet normal 1.1279865930191612e-14 -1.0 -2.8199664825478986e-15
  outer loop
    vertex 37.5884017543444 40.217226592144584 27.170138984266707
    vertex 39.588401754344396 40.217226592144605 31.170138984266703
    vertex 37.5884017543444 40.217226592144584 31.170138984266703
  endloop
endfacet
facet normal 3.177234444498859e-29 -2.8199664825478943e-15 1.0
  outer loop
    vertex 37.58840175434443 38.21722659214459 27.1701389842667
    vertex 39.588401754344396 40.217226592144605 27.170138984266707
    vertex 37.5884017543444 40.217226592144584 27.170138984266707
  endloop
endfacet
facet normal 3.177234444498859e-29 -2.8199664825478943e-15 1.0
  outer loop
    vertex 39.588401754344396 40.217226592144605 27.170138984266707
    vertex 37.58840175434443 38.21722659214459 27.1701389842667
    vertex 39.588401754344424 38.21722659214461 27.1701389842667
  endloop
endfacet
facet normal 1.0 1.4099832412739491e-14 3.5021843721583754e-29
  outer loop
    vertex 39.588401754345384 -29.782773407855345 9.499999999999947
    vertex 39.588401754344396 40.2172265921446 34.49999999999998
    vertex 39.588401754345384 -29.7827734078554 34.4999999999999
  endloop
endfacet
facet normal 1.0 1.4099832412739491e-14 3.5021843721583754e-29
  outer loop
    vertex 39.588401754344396 40.2172265921446 34.49999999999998
    vertex 39.588401754345384 -29.782773407855345 9.499999999999947
    vertex 39.588401754344424 38.2172265921446 31.170138984266696
  endloop
endfacet
facet normal 1.0 1.4099832412739491e-14 3.5021843721583754e-29
  outer loop
    vertex 39.588401754344396 40.2172265921446 34.49999999999998
    vertex 39.588401754344424 38.2172265921446 31.170138984266696
    vertex 39.588401754344396 40.217226592144605 31.170138984266703
  endloop
endfacet
facet normal 1.0 1.4099832412739491e-14 3.5021843721583754e-29
  outer loop
    vertex 39.588401754345384 -29.782773407855345 9.499999999999947
    vertex 39.588401754344424 38.217226592144634 16.37798064653388
    vertex 39.588401754344424 38.2172265921446 31.170138984266696
  endloop
endfacet
facet normal 1.0 1.4099832412739491e-14 3.5021843721583754e-29
  outer loop
    vertex 39.588401754344424 38.217226592144634 16.37798064653388
    vertex 39.588401754345384 -29.782773407855345 9.499999999999947
    vertex 39.588401754344424 38.21722659214464 12.377980646533882
  endloop
endfacet
facet normal 1.0 1.4099832412739491e-14 3.5021843721583754e-29
  outer loop
    vertex 39.588401754344424 38.21722659214464 12.377980646533882
    vertex 39.588401754345384 -29.782773407855345 9.499999999999947
    vertex 39.588401754344396 40.217226592144655 9.500000000000025
  endloop
endfacet
facet normal 1.0 1.4099832412739491e-14 3.5021843721583754e-29
  outer loop
    vertex 39.588401754344424 38.2172265921446 31.170138984266696
    vertex 39.588401754344424 38.217226592144634 16.37798064653388
    vertex 39.588401754344424 38.21722659214461 27.1701389842667
  endloop
endfacet
facet normal 1.0 1.4099832412739491e-14 3.5021843721583754e-29
  outer loop
    vertex 39.588401754344424 38.21722659214464 12.377980646533882
    vertex 39.588401754344396 40.217226592144655 9.500000000000025
    vertex 39.588401754344396 40.217226592144655 12.377980646533885
  endloop
endfacet
facet normal 1.0 1.4099832412739491e-14 3.5021843721583754e-29
  outer loop
    vertex 39.588401754344424 38.217226592144634 16.37798064653388
    vertex 39.588401754344396 40.217226592144605 27.170138984266707
    vertex 39.588401754344424 38.21722659214461 27.1701389842667
  endloop
endfacet
facet normal 1.0 1.4099832412739491e-14 3.5021843721583754e-29
  outer loop
    vertex 39.588401754344396 40.217226592144605 27.170138984266707
    vertex 39.588401754344424 38.217226592144634 16.37798064653388
    vertex 39.588401754344396 40.21722659214463 16.37798064653389
  endloop
endfacet
facet normal -1.4099832412739475e-14 1.0 2.8199664825478982e-15
  outer loop
    vertex 37.58840175434443 38.21722659214461 16.37798064653388
    vertex 39.588401754344424 38.21722659214464 12.377980646533882
    vertex 37.58840175434443 38.21722659214462 12.377980646533882
  endloop
endfacet
facet normal -1.4099832412739475e-14 1.0 2.8199664825478982e-15
  outer loop
    vertex 39.588401754344424 38.21722659214464 12.377980646533882
    vertex 37.58840175434443 38.21722659214461 16.37798064653388
    vertex 39.588401754344424 38.217226592144634 16.37798064653388
  endloop
endfacet
facet normal 1.127986593019161e-14 -1.0 -2.8199664825478963e-15
  outer loop
    vertex 39.588401754344396 40.21722659214463 16.37798064653389
    vertex 37.5884017543444 40.21722659214463 12.377980646533885
    vertex 39.588401754344396 40.217226592144655 12.377980646533885
  endloop
endfacet
facet normal 1.127986593019161e-14 -1.0 -2.8199664825478963e-15
  outer loop
    vertex 37.5884017543444 40.21722659214463 12.377980646533885
    vertex 39.588401754344396 40.21722659214463 16.37798064653389
    vertex 37.5884017543444 40.217226592144605 16.37798064653389
  endloop
endfacet
facet normal 2.3829258333741443e-29 -2.114974861910921e-15 1.0
  outer loop
    vertex 37.58840175434443 38.21722659214462 12.377980646533882
    vertex 39.588401754344396 40.217226592144655 12.377980646533885
    vertex 37.5884017543444 40.21722659214463 12.377980646533885
  endloop
endfacet
facet normal 2.3829258333741443e-29 -2.114974861910921e-15 1.0
  outer loop
    vertex 39.588401754344396 40.217226592144655 12.377980646533885
    vertex 37.58840175434443 38.21722659214462 12.377980646533882
    vertex 39.588401754344424 38.21722659214464 12.377980646533882
  endloop
endfacet
endsolid Untitled-54986d96
